<svg xmlns="http://www.w3.org/2000/svg" width="480" height="480" viewBox="0 0 480 480">
  <defs>
    <linearGradient id="pressure" x1="0" y1="1" x2="1" y2="0">
      <stop offset="0" stop-color="#023175"/>
      <stop offset="0.28" stop-color="#64a0be"/>
      <stop offset="0.48" stop-color="#e0e6e9"/>
      <stop offset="0.58" stop-color="#ece5e0"/>
      <stop offset="0.74" stop-color="#dbaa8d"/>
      <stop offset="1" stop-color="#892606"/>
    </linearGradient>
    <filter id="shadow" x="-20%" y="-20%" width="140%" height="140%">
      <feDropShadow dx="0" dy="2" stdDeviation="3" flood-color="#0b1720" flood-opacity="0.35"/>
    </filter>
  </defs>
  <rect width="480" height="480" fill="#13232c"/>
  <rect width="480" height="480" fill="url(#pressure)"/>
  <path d="M-20 128 C58 80 129 78 208 116 C289 155 356 142 502 72" fill="none" stroke="#0b1720" stroke-width="8" stroke-opacity="0.35" stroke-linecap="round"/>
  <path d="M-20 128 C58 80 129 78 208 116 C289 155 356 142 502 72" fill="none" stroke="#fff" stroke-width="3.6" stroke-opacity="0.96" stroke-linecap="round"/>
  <path d="M-24 215 C72 168 137 174 208 218 C292 270 365 260 505 176" fill="none" stroke="#0b1720" stroke-width="6" stroke-opacity="0.35" stroke-linecap="round"/>
  <path d="M-24 215 C72 168 137 174 208 218 C292 270 365 260 505 176" fill="none" stroke="#fff" stroke-width="2.6" stroke-opacity="0.94" stroke-linecap="round"/>
  <path d="M-20 312 C67 281 145 300 230 334 C312 367 384 350 506 288" fill="none" stroke="#0b1720" stroke-width="6" stroke-opacity="0.35" stroke-linecap="round"/>
  <path d="M-20 312 C67 281 145 300 230 334 C312 367 384 350 506 288" fill="none" stroke="#fff" stroke-width="2.6" stroke-opacity="0.94" stroke-linecap="round"/>
  <path d="M33 424 C119 379 190 383 260 414 C331 446 392 441 501 388" fill="none" stroke="#0b1720" stroke-width="8" stroke-opacity="0.35" stroke-linecap="round"/>
  <path d="M33 424 C119 379 190 383 260 414 C331 446 392 441 501 388" fill="none" stroke="#fff" stroke-width="3.6" stroke-opacity="0.96" stroke-linecap="round"/>
  <g filter="url(#shadow)" font-family="Noto Sans, Helvetica, Arial, sans-serif" font-weight="700" text-anchor="middle">
    <text x="131" y="174" font-size="70" fill="#1d72bd" stroke="#ffffff" stroke-width="4" paint-order="stroke">H</text>
    <text x="351" y="290" font-size="70" fill="#c82929" stroke="#ffffff" stroke-width="4" paint-order="stroke">T</text>
  </g>
  <g font-family="Noto Sans, Helvetica, Arial, sans-serif" font-size="18" font-weight="700" fill="#ffffff" stroke="#0b1720" stroke-width="3" paint-order="stroke">
    <text x="224" y="109">1020</text>
    <text x="257" y="230">1014</text>
    <text x="179" y="326">1008</text>
    <text x="330" y="409">1000</text>
  </g>
</svg>
