<svg xmlns="http://www.w3.org/2000/svg" width="480" height="480" viewBox="0 0 480 480">
  <defs>
    <radialGradient id="low" cx="33%" cy="58%" r="62%">
      <stop offset="0" stop-color="#001261"/>
      <stop offset="0.33" stop-color="#2575a1"/>
      <stop offset="0.58" stop-color="#e0e6e9"/>
      <stop offset="1" stop-color="#bb602d"/>
    </radialGradient>
    <linearGradient id="warm" x1="0" y1="0" x2="1" y2="1">
      <stop offset="0" stop-color="#a3c7d9" stop-opacity="0.75"/>
      <stop offset="0.55" stop-color="#ece5e0" stop-opacity="0.65"/>
      <stop offset="1" stop-color="#590008" stop-opacity="0.75"/>
    </linearGradient>
    <filter id="shadow" x="-20%" y="-20%" width="140%" height="140%">
      <feDropShadow dx="0" dy="2" stdDeviation="3" flood-color="#0b1720" flood-opacity="0.35"/>
    </filter>
  </defs>
  <rect width="480" height="480" fill="#0e1c24"/>
  <rect width="480" height="480" fill="url(#low)"/>
  <rect width="480" height="480" fill="url(#warm)"/>
  <path d="M-28 94 C80 35 171 52 256 108 C329 157 389 163 508 116" fill="none" stroke="#08131a" stroke-width="8" stroke-opacity="0.35" stroke-linecap="round"/>
  <path d="M-28 94 C80 35 171 52 256 108 C329 157 389 163 508 116" fill="none" stroke="#ffffff" stroke-width="3.5" stroke-opacity="0.96" stroke-linecap="round"/>
  <path d="M-30 184 C77 127 166 145 252 203 C337 260 406 258 510 204" fill="none" stroke="#08131a" stroke-width="6" stroke-opacity="0.35" stroke-linecap="round"/>
  <path d="M-30 184 C77 127 166 145 252 203 C337 260 406 258 510 204" fill="none" stroke="#ffffff" stroke-width="2.5" stroke-opacity="0.94" stroke-linecap="round"/>
  <path d="M-20 274 C82 238 152 252 226 300 C309 353 387 347 502 292" fill="none" stroke="#08131a" stroke-width="6" stroke-opacity="0.35" stroke-linecap="round"/>
  <path d="M-20 274 C82 238 152 252 226 300 C309 353 387 347 502 292" fill="none" stroke="#ffffff" stroke-width="2.5" stroke-opacity="0.94" stroke-linecap="round"/>
  <path d="M-26 374 C72 333 159 348 245 390 C323 428 394 431 502 382" fill="none" stroke="#08131a" stroke-width="8" stroke-opacity="0.35" stroke-linecap="round"/>
  <path d="M-26 374 C72 333 159 348 245 390 C323 428 394 431 502 382" fill="none" stroke="#ffffff" stroke-width="3.5" stroke-opacity="0.96" stroke-linecap="round"/>
  <g filter="url(#shadow)" font-family="Noto Sans, Helvetica, Arial, sans-serif" font-weight="700" text-anchor="middle">
    <text x="125" y="286" font-size="72" fill="#c82929" stroke="#ffffff" stroke-width="4" paint-order="stroke">T</text>
    <text x="374" y="168" font-size="72" fill="#1d72bd" stroke="#ffffff" stroke-width="4" paint-order="stroke">H</text>
  </g>
  <g font-family="Noto Sans, Helvetica, Arial, sans-serif" font-size="18" font-weight="700" fill="#ffffff" stroke="#08131a" stroke-width="3" paint-order="stroke">
    <text x="196" y="99">1020</text>
    <text x="279" y="212">1015</text>
    <text x="195" y="307">1005</text>
    <text x="306" y="397">995</text>
  </g>
</svg>
